{"title":"The Shawshank Redemption *1994*[BluRay][1080p][ENG, POL]","uid":5974870,"size":8019973315,"categoryP":"video","categoryS":"hd___movies","magnet":"?xt=urn:btih:57f35df348b21953008fba7866c83fcd57c72ed1&amp;dn=The+Shawshank+Redemption+%2A1994%2A%5BBluRay%5D%5B1080p%5D%5BENG%2C+POL%5D&amp;tr=udp%3A%2F%2Ftracker.openbittorrent.com%3A80&amp;tr=udp%3A%2F%2Fopen.demonii.com%3A1337&amp;tr=udp%3A%2F%2Ftracker.coppersurfer.tk%3A6969&amp;tr=udp%3A%2F%2Fexodus.desync.com%3A6969","seeders":0,"leechers":1,"uploader":"albedo040","files":1,"time":1290419638,"description":"The Shawshank Redemption *1994*[BluRay][1080p][ENG, POL]\n\nGeneral information:\nCountry: USA\nRelease: 10 September 1994 (Toronto International Film Festival)\nGenre: Crime, Drama \nDirector: Frank Darabont\nScreenplay: Frank Darabont, Stephen King (short story *Rita Hayworth and Shawshank Redemption*)\nOriginal Music: Thomas Newman \nCinematography by: Roger Deakins\nDuration: 2h 22mn\nLanguage: English, Polish\nSubtitles: English, Polish\nRating: 9.0/10 - 107493 votes \n\nCast:\nTim Robbins  ...  Andy Dufresne  \nMorgan Freeman  ...  Ellis Boyd 'Red' Redding  \nBob Gunton  ...  Warden Norton  \nWilliam Sadler  ...  Heywood  \nClancy Brown  ...  Captain Hadley  \nGil Bellows  ...  Tommy  \nMark Rolston  ...  Bogs Diamond  \nJames Whitmore  ...  Brooks Hatlen  \nJeffrey DeMunn  ...  1946 D.A.  \nLarry Brandenburg  ...  Skeet  \nNeil Giuntoli  ...  Jigger  \nBrian Libby  ...  Floyd  \nDavid Proval  ...  Snooze  \nJoseph Ragno  ...  Ernie  \nJude Ciccolella  ...  Guard Mert  \n\nPlot:\nTwo imprisoned men bond over a number of years, finding solace and eventual redemption through acts of common decency. \n\nSpecifications:\nGeneral\nComplete name                    : C:\\GOTowe_Torki\\Shawshank Redemption_BluRay_1080p_x264.mkv\nFormat                           : Matroska\nOverall bit rate                 : 7 502 Kbps\n\nVideo\nFormat                           : AVC\nFormat/Info                      : Advanced Video Codec\nFormat profile                   : &lt;a class=&quot;__cf_email__&quot; href=&quot;/cdn-cgi/l/email-protection&quot; data-cfemail=&quot;e7af8e808fa7abd3c9d6&quot;&gt;[email&amp;#160;protected]&lt;/a&gt;&lt;script cf-hash='f9e31' type=&quot;text/javascript&quot;&gt;\n/* &lt;![CDATA[ */!function(){try{var t=&quot;currentScript&quot;in document?document.currentScript:function(){for(var t=document.getElementsByTagName(&quot;script&quot;),e=t.length;e--;)if(t[e].getAttribute(&quot;cf-hash&quot;))return t[e]}();if(t&amp;&amp;t.previousSibling){var e,r,n,i,c=t.previousSibling,a=c.getAttribute(&quot;data-cfemail&quot;);if(a){for(e=&quot;&quot;,r=parseInt(a.substr(0,2),16),n=2;a.length-n;n+=2)i=parseInt(a.substr(n,2),16)^r,e+=String.fromCharCode(i);e=document.createTextNode(e),c.parentNode.replaceChild(e,c)}}}catch(u){}}();/* ]]&gt; */&lt;/script&gt;\nFormat settings, CABAC           : Yes\nFormat settings, ReFrames        : 4 frames\nMuxing mode                      : Container profile=&lt;a class=&quot;__cf_email__&quot; href=&quot;/cdn-cgi/l/email-protection&quot; data-cfemail=&quot;6633080d0809110826524857&quot;&gt;[email&amp;#160;protected]&lt;/a&gt;&lt;script cf-hash='f9e31' type=&quot;text/javascript&quot;&gt;\n/* &lt;![CDATA[ */!function(){try{var t=&quot;currentScript&quot;in document?document.currentScript:function(){for(var t=document.getElementsByTagName(&quot;script&quot;),e=t.length;e--;)if(t[e].getAttribute(&quot;cf-hash&quot;))return t[e]}();if(t&amp;&amp;t.previousSibling){var e,r,n,i,c=t.previousSibling,a=c.getAttribute(&quot;data-cfemail&quot;);if(a){for(e=&quot;&quot;,r=parseInt(a.substr(0,2),16),n=2;a.length-n;n+=2)i=parseInt(a.substr(n,2),16)^r,e+=String.fromCharCode(i);e=document.createTextNode(e),c.parentNode.replaceChild(e,c)}}}catch(u){}}();/* ]]&gt; */&lt;/script&gt;\nCodec ID                         : V_MPEG4/ISO/AVC\nBit rate                         : 6 420 Kbps\nWidth                            : 1 920 pixels\nHeight                           : 1 080 pixels\nDisplay aspect ratio             : 16:9\nFrame rate                       : 23.976 fps\n\nAudio 1\nFormat                           : AC-3\nFormat/Info                      : Audio Coding 3\nMode extension                   : CM (complete main)\nCodec ID                         : A_AC3\nBit rate mode                    : Constant\nBit rate                         : 640 Kbps\nChannel(s)                       : 6 channels\nChannel positions                : Front: L C R, Side: L R, LFE\nSampling rate                    : 48.0 KHz\nStream size                      : 653 MiB (9%)\nTitle                            : English\n\nAudio 2\nFormat                           : AC-3\nFormat/Info                      : Audio Coding 3\nMode extension                   : CM (complete main)\nCodec ID                         : A_AC3\nBit rate mode                    : Constant\nBit rate                         : 448 Kbps\nChannel(s)                       : 6 channels\nChannel positions                : Front: L C R, Side: L R, LFE\nSampling rate                    : 48.0 KHz\nStream size                      : 457 MiB (6%)\nTitle                            : Polish\nLanguage                         : Polish\n\nText 1\nFormat                           : UTF-8\nCodec ID                         : S_TEXT/UTF8\nCodec ID/Info                    : UTF-8 Plain Text\nTitle                            : English\n\nText 2\nFormat                           : UTF-8\nCodec ID                         : S_TEXT/UTF8\nCodec ID/Info                    : UTF-8 Plain Text\nTitle                            : Polish\nLanguage                         : Polish\n","torrent":{"xt":"urn:btih:57f35df348b21953008fba7866c83fcd57c72ed1","amp;dn":"The+Shawshank+Redemption+%2A1994%2A%5BBluRay%5D%5B1080p%5D%5BENG%2C+POL%5D","amp;tr":["udp%3A%2F%2Ftracker.openbittorrent.com%3A80","udp%3A%2F%2Fopen.demonii.com%3A1337","udp%3A%2F%2Ftracker.coppersurfer.tk%3A6969","udp%3A%2F%2Fexodus.desync.com%3A6969"],"infoHash":"57f35df348b21953008fba7866c83fcd57c72ed1","infoHashBuffer":{"type":"Buffer","data":[87,243,93,243,72,178,25,83,0,143,186,120,102,200,63,205,87,199,46,209]},"announce":[],"urlList":[]}}